<?xml version="1.0"?>
<svg xmlns="http://www.w3.org/2000/svg" xmlns:xlink="http://www.w3.org/1999/xlink" id="Layer_1" data-name="Layer 1" viewBox="0 0 948.23 948.23">
  <defs>
    <style>.cls-1{stroke:#a86817;stroke-width:3px;fill:url(#radial-gradient);}.cls-1,.cls-2,.cls-3,.cls-4,.cls-5,.cls-6,.cls-8{stroke-miterlimit:31.51;}.cls-2,.cls-3,.cls-6,.cls-8{fill:none;}.cls-2{stroke:#231f20;stroke-width:12px;}.cls-3{stroke:#6d28d9;}.cls-3,.cls-5,.cls-8{stroke-width:70.89px;}.cls-4,.cls-7{fill:#252525;}.cls-4{stroke:#252525;stroke-width:78.77px;}.cls-5,.cls-9{fill:#f5f5f5;}.cls-5{stroke:#f5f5f5;}.cls-6{stroke:#e50000;stroke-width:39.38px;}.cls-8{stroke:#069447;}</style>
    <radialGradient id="radial-gradient" cx="472.66" cy="366.51" r="472.61" gradientTransform="translate(1.45 107.6)" gradientUnits="userSpaceOnUse">
      <stop offset="0.73" stop-color="#e1b372"/>
      <stop offset="1" stop-color="#f4ac53"/>
    </radialGradient>
  </defs>
  <rect class="cls-1" x="1.5" y="1.5" width="945.23" height="945.23" rx="141.78"/>
  <line class="cls-2" x1="1.5" y1="671.04" x2="946.73" y2="671.04"/>
  <line class="cls-2" x1="277.19" y1="946.73" x2="277.19" y2="1.5"/>
  <line class="cls-2" x1="671.04" y1="946.73" x2="671.04" y2="1.5"/>
  <line class="cls-2" x1="1.5" y1="279.24" x2="946.73" y2="279.24"/>
  <circle class="cls-3" cx="671.04" cy="279.24" r="157.54"/>
  <circle class="cls-4" cx="277.19" cy="279.24" r="157.54"/>
  <circle class="cls-5" cx="671.04" cy="671.04" r="157.54"/>
  <path class="cls-6" d="M584.39,584.39l173.3,173.3m0-173.3-173.3,173.3" transform="translate(0 0)"/>
  <circle class="cls-7" cx="671.04" cy="279.24" r="25.65"/>
  <circle class="cls-8" cx="277.19" cy="671.04" r="157.54"/>
  <path class="cls-9" d="M292.53,281.35l8.4,6.17A25.68,25.68,0,0,1,288,299.09q-8.65,3.69-20.48,3.68-18.85,0-33.16-9.08a60.34,60.34,0,0,1-22.22-25.6q-7.87-16.54-7.88-38.31v-.17q0-24.17,8.57-41.3a58.73,58.73,0,0,1,24.93-26q16.37-8.91,39.51-8.92t39.33,9.09a59.69,59.69,0,0,1,24.94,26.39q8.6,17.22,8.6,41.58v.17a112.37,112.37,0,0,1-3.6,27,261.52,261.52,0,0,1-10.11,31.28q-.87,2.4-1.8,4.8t-2,4.63L288.13,405.09H238.37Zm3.86-30.42q6.76-8,6.77-22.54v-.17q0-14.06-6.77-21.68t-19.11-7.63q-12.51,0-19.28,7.71t-6.77,21.77v.17q0,14.56,6.77,22.45t19.28,7.89q12.35,0,19.11-8Z" transform="translate(0 0)"/>
</svg>
